<svg width="417" height="340" viewBox="0 0 417 340" fill="none" xmlns="http://www.w3.org/2000/svg">
<path d="M201.42 145.168C201.42 145.168 159.977 103.254 117.282 72.7633C88.1693 51.9738 13.6748 -21.1275 2.09365 5.93189C-9.40372 32.7923 29.5144 135.226 44.4531 155.424C58.0719 173.841 106.733 197.542 159.228 197.123C211.718 196.699 201.42 145.168 201.42 145.168Z" fill="#2D2A2B"/>
<path d="M138.472 142.472C138.472 142.472 43.1616 36.382 36.4727 47.9423C29.789 59.5077 42.8578 108.011 58.3622 129.733C72.421 149.428 129.73 175.555 140.923 173.203C151.803 170.92 138.472 142.472 138.472 142.472Z" fill="#9F938A"/>
<path d="M215.389 145.168C215.389 145.168 256.827 103.254 299.527 72.7633C328.639 51.9738 403.134 -21.1275 414.71 5.93189C426.207 32.7923 387.289 135.226 372.356 155.424C358.732 173.841 310.071 197.542 257.576 197.123C205.086 196.699 215.389 145.168 215.389 145.168Z" fill="#2D2A2B"/>
<path d="M278.339 142.472C278.339 142.472 373.644 36.382 380.333 47.9423C387.022 59.5077 373.948 108.011 358.444 129.733C344.39 149.428 287.076 175.555 275.883 173.203C265.003 170.92 278.339 142.472 278.339 142.472Z" fill="#9F938A"/>
<path d="M261.503 96.0036C232.929 87.2299 190.387 84.0452 161.876 93.0179C112.383 108.585 95.6053 187.097 90.1002 215.43C80.8866 262.844 154.548 334.567 203.874 339.234C253.195 343.901 334.599 285.55 334.227 211.401C334.012 168.791 307.209 110.041 261.503 96.0036Z" fill="#2D2A2B"/>
<path d="M149.314 266.905C122.035 287.548 165.416 312.093 177.683 317.845C193.554 325.283 214.485 327.813 231.116 322.784C246.359 318.175 306.669 281.912 268.19 263.134C241.953 250.338 240.607 230.957 218.22 220.607C204.596 214.311 191.852 225.934 185.923 237.374C178.244 252.187 153.185 263.977 149.314 266.905Z" fill="#DDD6CF"/>
<path d="M257.34 204.649C257.34 204.649 272.399 180.392 288.097 184.022C303.801 187.652 311.883 208.023 311.883 208.023C311.883 208.023 302.475 229.729 286.872 228.398C271.273 227.068 258.33 214.104 257.34 204.649Z" fill="#868990"/>
<path d="M304.651 205.263C305.133 216.331 296.553 225.702 285.48 226.184C274.412 226.666 265.047 218.086 264.565 207.018C264.078 195.945 272.663 186.579 283.73 186.097C294.798 185.61 304.164 194.195 304.651 205.263Z" fill="#242630"/>
<path d="M294.224 205.718C294.46 211.034 290.338 215.529 285.026 215.764C279.71 215.995 275.21 211.872 274.98 206.561C274.749 201.245 278.867 196.75 284.183 196.515C289.5 196.284 293.994 200.401 294.224 205.718Z" fill="#10111A"/>
<path d="M302.611 199.937C302.784 203.981 299.651 207.407 295.602 207.585C291.559 207.758 288.138 204.626 287.96 200.577C287.782 196.533 290.92 193.112 294.963 192.934C299.007 192.756 302.433 195.894 302.611 199.937Z" fill="#F3F8EA"/>
<path d="M171.29 204.811C171.29 204.811 159.615 178.752 143.571 180.25C127.527 181.749 116.789 200.857 116.789 200.857C116.789 200.857 123.211 223.626 138.851 224.396C154.487 225.161 169.048 214.046 171.29 204.811Z" fill="#868990"/>
<path d="M163.816 206.192C161.857 217.097 151.428 224.346 140.517 222.387C129.612 220.428 122.363 210 124.322 199.094C126.286 188.189 136.715 180.934 147.62 182.898C158.526 184.857 165.775 195.286 163.816 206.192Z" fill="#242630"/>
<path d="M153.55 204.346C152.607 209.579 147.605 213.062 142.367 212.119C137.129 211.182 133.651 206.169 134.588 200.936C135.531 195.698 140.539 192.22 145.777 193.158C151.009 194.101 154.493 199.108 153.55 204.346Z" fill="#10111A"/>
<path d="M162.999 200.542C162.281 204.528 158.468 207.178 154.482 206.461C150.501 205.749 147.851 201.935 148.563 197.949C149.281 193.963 153.094 191.313 157.08 192.03C161.066 192.748 163.716 196.556 162.999 200.542Z" fill="#F3F8EA"/>
<path d="M248.919 172.332C248.919 172.332 256.86 145.068 267.053 149.411C277.246 153.748 282.552 165.696 279.965 166.24C277.382 166.79 246.51 179.152 248.919 172.332Z" fill="#A0907F"/>
<path d="M174.884 171.144C174.884 171.144 166.959 143.881 156.766 148.212C146.568 152.544 141.256 164.487 143.839 165.037C146.426 165.587 177.289 177.969 174.884 171.144Z" fill="#A0907F"/>
<path d="M174.879 294.749C174.879 294.749 178.671 317.666 210.56 316.241C242.245 314.827 245.759 295.195 245.759 295.195C245.759 295.195 221.204 305.896 208.763 290.119C208.763 290.119 196.8 309.337 174.879 294.749Z" fill="#868990"/>
<path d="M230.929 296.211C213.272 300.066 211.517 278.449 211.517 278.449L209.647 279.665L207.683 278.617C207.683 278.617 207.819 300.302 189.895 298.008C167.419 295.122 159.012 272.206 158.812 282.692C158.812 282.692 162.107 300.695 190.188 304.608C203.361 306.446 208.359 299.234 210.197 292.21C212.643 299.045 218.253 305.792 231.217 302.816C258.847 296.463 260.56 278.245 260.56 278.245C259.445 267.811 253.07 291.382 230.929 296.211Z" fill="#0B111B"/>
<path d="M213.145 286.702C210.918 287.666 208.446 287.666 206.267 286.597C198.353 282.731 179.904 272.109 180.763 257.484C181.853 238.89 193.958 242.205 210.306 241.697C226.648 241.194 244.41 239.471 242.613 258.349C240.99 275.409 224.281 281.888 213.145 286.702Z" fill="#0B111B"/>
</svg>
