<svg width="471" height="298" viewBox="0 0 471 298" fill="none" xmlns="http://www.w3.org/2000/svg">
<path d="M167.623 26.8038C167.623 26.8038 122.859 9.35089 103.929 35.5879C84.9939 61.825 122.817 143.092 147.394 154.893C171.976 166.689 167.623 26.8038 167.623 26.8038Z" fill="#CD721D"/>
<path d="M139.661 17.1913C139.661 17.1913 162.389 49.1116 154.925 78.2243C147.461 107.342 129.699 118.976 130.081 170.638C130.463 222.3 137.493 273.161 99.7165 251.345C61.935 229.523 -14.9795 131.243 2.5625 80.5237C20.1097 29.8096 75.4699 45.445 94.0071 28.8249C114.666 10.3034 135.068 9.82672 139.661 17.1913Z" fill="#DE873F"/>
<path d="M114.984 256.531C134.726 256.364 130.688 216.366 130.127 174.63C130.688 216.372 134.732 256.374 114.984 256.531Z" fill="#F3DCC0"/>
<path d="M114.868 256.531C110.861 256.531 105.89 254.907 99.7197 251.346C70.1147 234.249 16.6662 170.256 3.2832 118.93C25.0627 136.76 49.9955 146.586 77.9611 146.586C84.6396 146.586 91.4908 146.026 98.5045 144.884C105.728 143.705 112.5 141.364 118.817 138.111C119.001 139.976 119.226 141.835 119.504 143.695C119.959 146.728 120.556 149.75 121.305 152.751C123.181 160.247 126.03 167.596 130.126 174.63C130.687 216.366 134.725 256.364 114.983 256.531C114.946 256.531 114.905 256.531 114.868 256.531Z" fill="#D67837"/>
<path d="M310.328 27.1707C310.328 27.1707 346.156 11.9544 364.018 38.9352C381.879 65.9108 350.425 145.156 325.393 155.962C300.36 166.768 310.328 27.1707 310.328 27.1707Z" fill="#CD721D"/>
<path d="M329.691 37.9863C317.649 24.4094 279.548 9.96833 249.445 1.98041C239.619 -0.622863 229.326 -0.633331 219.458 1.79185C192.136 8.49123 136.582 24.4933 133.471 44.4238C129.333 70.9175 101.331 133.868 133.702 180.229C144.136 195.183 154.947 219.875 162.835 243.106C171.651 237.564 182.404 233.902 195.279 233.091C221.233 231.456 240.258 242.147 252.033 258.154C262.273 244.63 278.097 234.913 300.175 233.52L301.28 233.504C304.868 212.903 314.365 196.88 322.971 187.73C355.52 153.122 347.537 58.1054 329.691 37.9863Z" fill="#DE873F"/>
<path d="M306.46 214.834C310.985 203.159 317.182 193.893 322.97 187.733C317.35 194.312 311.158 203.483 306.46 214.834ZM130.647 175.518C130.636 175.497 130.626 175.481 130.616 175.465C130.626 175.486 130.636 175.497 130.647 175.518ZM130.574 175.397C130.558 175.371 130.542 175.345 130.526 175.313C130.542 175.34 130.558 175.371 130.574 175.397ZM130.411 175.125C130.39 175.088 130.369 175.052 130.348 175.015C130.369 175.057 130.39 175.088 130.411 175.125Z" fill="#F2D2B3"/>
<path d="M130.126 174.633C126.03 167.598 123.181 160.249 121.306 152.754C120.557 149.752 119.96 146.73 119.504 143.697C121.101 154.315 124.396 164.785 130.126 174.633Z" fill="#CE672D"/>
<path d="M133.367 45.0878C133.372 45.0721 133.372 45.0616 133.377 45.0459C133.372 45.0563 133.372 45.0721 133.367 45.0878ZM133.44 44.6373C133.445 44.6112 133.45 44.585 133.456 44.564C133.45 44.5902 133.445 44.6112 133.44 44.6373Z" fill="#D77435"/>
<path d="M300.893 232.941C292.02 218.904 285.043 220.093 278.128 217.123C278.343 214.168 277.83 210.36 275.677 205.562C275.64 205.473 275.599 205.384 275.557 205.301C318.372 183.018 335.05 117.004 312.474 79.2381C295.267 50.4501 290.438 38.6123 301.437 20.1484C305.057 22.3065 315.287 28.1625 322.447 32.73C316.973 44.6988 311.667 61.9056 315.852 78.2272C321.117 98.7548 331.498 110.593 337.029 133.891C337.029 133.896 337.029 133.902 337.029 133.907C337.056 133.996 337.077 134.09 337.098 134.185C337.098 134.185 337.098 134.19 337.103 134.195C337.108 134.226 337.113 134.258 337.124 134.289C337.124 134.289 337.124 134.294 337.124 134.3C337.134 134.347 337.15 134.405 337.16 134.452C337.166 134.467 337.166 134.483 337.171 134.499C337.176 134.525 337.181 134.551 337.187 134.572C337.192 134.593 337.197 134.609 337.202 134.624C337.208 134.666 337.218 134.703 337.229 134.74C337.234 134.761 337.234 134.776 337.239 134.797C337.244 134.818 337.25 134.839 337.255 134.865C337.26 134.886 337.265 134.907 337.271 134.928C337.276 134.965 337.286 134.991 337.291 135.028C337.297 135.049 337.302 135.075 337.307 135.101C337.312 135.117 337.318 135.133 337.323 135.154C337.328 135.19 337.339 135.227 337.344 135.258C337.349 135.274 337.354 135.295 337.354 135.311C337.365 135.337 337.37 135.368 337.375 135.4C337.38 135.415 337.386 135.431 337.386 135.442C337.396 135.484 337.407 135.525 337.412 135.567C337.417 135.578 337.417 135.588 337.422 135.599C337.428 135.63 337.438 135.667 337.443 135.704C337.449 135.714 337.449 135.724 337.454 135.74C337.459 135.782 337.47 135.824 337.48 135.866C337.48 135.876 337.485 135.882 337.485 135.892C337.496 135.929 337.501 135.965 337.511 136.002C337.511 136.013 337.511 136.023 337.517 136.034C337.527 136.081 337.538 136.123 337.548 136.17C337.548 136.17 337.548 136.175 337.548 136.18C337.559 136.222 337.564 136.264 337.574 136.306C337.579 136.316 337.579 136.327 337.579 136.332C337.6 136.426 337.621 136.521 337.642 136.62C337.642 136.62 337.642 136.62 337.642 136.625C338.7 141.596 339.538 147.086 340.068 153.266C336.427 166.482 330.875 178.482 322.971 187.732C317.183 193.892 310.986 203.158 306.461 214.834C304.172 220.365 302.239 226.42 300.893 232.941ZM158.388 230.668C152.836 215.934 146.351 201.403 139.757 189.88C137.74 186.355 135.713 183.112 133.702 180.232C132.638 178.707 131.638 177.167 130.7 175.612C130.7 175.606 130.695 175.596 130.695 175.591C130.679 175.57 130.664 175.544 130.648 175.517C130.637 175.496 130.627 175.486 130.616 175.465C130.601 175.444 130.59 175.423 130.575 175.397C130.559 175.371 130.543 175.339 130.527 175.313C130.517 175.297 130.506 175.282 130.496 175.266C130.475 175.229 130.454 175.193 130.433 175.156C130.428 175.145 130.417 175.135 130.412 175.125C130.391 175.088 130.37 175.056 130.349 175.015C130.344 175.009 130.344 175.004 130.339 174.999C130.265 174.878 130.197 174.753 130.124 174.632C124.394 164.785 121.099 154.314 119.501 143.697C119.475 143.524 119.454 143.351 119.428 143.178C113.912 105.177 129.935 65.3522 133.34 45.2174C133.34 45.2122 133.34 45.2069 133.345 45.2017C133.351 45.165 133.356 45.1231 133.361 45.0865C133.366 45.0708 133.366 45.055 133.372 45.0445C133.372 45.0236 133.377 45.0026 133.377 44.9869C133.382 44.9712 133.382 44.9607 133.387 44.945C133.393 44.9188 133.398 44.8874 133.398 44.856C133.403 44.8402 133.408 44.8193 133.408 44.8036C133.413 44.7879 133.413 44.7722 133.419 44.7565C133.419 44.7355 133.424 44.7146 133.429 44.6884C133.429 44.6727 133.434 44.657 133.434 44.636C133.44 44.6098 133.445 44.5889 133.45 44.5627C133.45 44.5522 133.45 44.5364 133.455 44.5312C133.461 44.4945 133.466 44.4631 133.471 44.4265C133.471 44.4108 133.476 44.3898 133.476 44.3741C133.665 43.2008 134.063 42.038 134.597 40.8961L135.352 39.6337C135.776 38.9056 136.184 38.1828 136.734 37.4704C137.138 36.9414 137.635 36.4333 138.102 35.9148C138.625 35.3281 139.139 34.7466 139.741 34.1705C140.359 33.5838 141.051 33.0077 141.742 32.4315C142.313 31.9548 142.884 31.4782 143.507 31.0068C144.34 30.373 145.225 29.7549 146.142 29.1368C146.713 28.7492 147.284 28.3668 147.881 27.9897C148.949 27.3088 150.06 26.6383 151.217 25.9731C151.699 25.7007 152.192 25.4231 152.689 25.1507C154.03 24.4121 155.402 23.684 156.832 22.9717L157.775 22.5055C159.415 21.7094 161.086 20.9184 162.809 20.1484L162.846 20.1327C163.102 27.0521 163.092 33.961 162.458 40.8385C160.379 63.608 141.035 78.7562 137.148 101.945C130.527 141.434 158.268 181.379 194.687 198.015C190.947 200.984 188.114 205.248 187.056 210.387C187.019 210.575 186.977 210.774 186.946 210.963C186.296 211.073 185.641 211.157 184.94 211.162C178.093 211.193 172.306 213.802 158.388 230.668Z" fill="#D77435"/>
<path d="M203.709 135.21C203.709 135.21 198.225 114.813 173.014 114.651C173.014 114.651 156.394 113.609 143.436 133.78C143.436 133.78 151.785 156.696 177.105 154.46C195.779 152.81 203.709 135.21 203.709 135.21Z" fill="#87401E"/>
<path d="M268.801 146.431C268.801 146.431 270.021 125.343 294.671 120.063C294.671 120.063 310.736 115.658 327.524 132.776C327.524 132.776 324.009 156.907 298.762 159.867C280.141 162.051 268.801 146.431 268.801 146.431Z" fill="#87401E"/>
<path d="M152.588 134.324C152.588 134.324 172.236 102.241 197.352 133.114C197.352 133.114 194.481 153.731 175.012 151.918C155.542 150.111 152.588 134.324 152.588 134.324Z" fill="#CB9D7F"/>
<path d="M192.529 130.673C193.1 139.719 186.228 147.513 177.182 148.084C168.131 148.655 160.337 141.788 159.766 132.737C159.195 123.691 166.067 115.897 175.113 115.326C184.164 114.755 191.958 121.622 192.529 130.673Z" fill="#3B3536"/>
<path d="M320.039 134.074C320.039 134.074 294.279 106.653 275.967 141.989C275.967 141.989 282.965 161.595 301.659 155.859C320.359 150.129 320.039 134.074 320.039 134.074Z" fill="#CB9D7F"/>
<path d="M281.373 141.025C282.3 150.04 290.361 156.598 299.376 155.67C308.395 154.749 314.953 146.687 314.026 137.668C313.104 128.648 305.043 122.09 296.023 123.017C287.003 123.944 280.445 132.005 281.373 141.025Z" fill="#3B3536"/>
<path d="M174.746 127.37C175.427 130.533 178.837 132.555 182.357 131.88C185.866 131.199 188.155 128.093 187.474 124.934C186.788 121.776 183.389 119.754 179.874 120.419C176.359 121.089 174.06 124.201 174.746 127.37Z" fill="#F4EADB"/>
<path d="M298.266 136.199C299.072 139.337 302.561 141.222 306.049 140.405C309.527 139.593 311.696 136.398 310.884 133.266C310.077 130.133 306.605 128.248 303.116 129.054C299.628 129.861 297.454 133.061 298.266 136.199Z" fill="#F4EADB"/>
<path d="M273.902 214.635L273.038 214.263C267.753 218.527 261.697 222.136 254.459 224.509C254.05 227.431 252.877 230.077 249.655 231.585C242.317 235.011 236.167 239.112 230.992 243.135C225.126 238.505 218.374 233.094 212.508 228.128C211.989 227.688 211.785 226.489 211.69 225.017C202.65 222.036 195.123 216.961 188.931 210.638C187.601 210.806 186.354 211.157 184.94 211.162C178.089 211.194 172.306 213.802 158.373 230.689C164.721 247.519 169.902 264.605 172.531 277.774C175.486 292.555 186.815 296.976 199.407 297.285C211.387 296.054 220.862 289.428 228.022 281.728C233.355 286.909 240.237 291.811 249.278 294.671C261.388 298.495 274.42 299.543 285.614 281.786C293.256 269.665 296.462 253.176 301.176 233.392C290.354 215.955 282.356 221.266 273.902 214.635Z" fill="#F5A967"/>
<path d="M283.857 268.65C281.165 269.326 265.676 278.047 262.177 277.88C247.836 277.173 236.972 268.692 227.753 260.903C227.717 260.872 221.368 270.269 216.408 272.589L216.471 272.684C210.091 275.722 202.883 277.922 194.56 278.781C186.41 279.613 178.301 267.943 178.338 268.127C178.972 271.296 184.943 286.04 193.565 286.748C201.898 287.434 210.091 284.474 216.471 281.436C216.455 281.41 225.391 277.691 228.743 272.17L228.869 272.254C235.144 277.55 246.275 282.892 254.802 285.585C273.329 291.441 282.909 271.306 283.857 268.65Z" fill="#101719"/>
<path d="M223.672 191.325C214.391 191.435 207.519 192.383 201.217 194.478C194.413 196.741 188.672 202.555 187.059 210.386C182.135 234.318 213.694 253.557 223.337 261.199C235.62 270.937 269.599 235.978 275.434 225C276.518 222.962 280.882 217.158 275.68 205.561C269.908 192.681 235.489 191.178 223.672 191.325Z" fill="#532A22"/>
<path d="M245.495 227.312C234.029 227.312 224.716 220.362 224.637 211.698C224.553 202.966 233.877 195.801 245.463 195.691C245.553 195.691 245.642 195.691 245.725 195.691C257.191 195.691 266.504 202.642 266.583 211.31C266.662 220.042 257.338 227.203 245.757 227.312C245.668 227.312 245.579 227.312 245.495 227.312Z" fill="#915240"/>
<path d="M261.885 112.426C260.183 109.639 263.435 98.7809 265.944 95.0828C281.952 71.4857 310.258 76.9804 328.559 99.3361C324.264 100.928 319.629 100.897 315.145 99.2418C319.011 101.505 320.179 106.601 321.918 111.158C318.104 108.728 316.706 108.613 312.615 106.685C295.45 98.5871 276.928 100.687 261.885 112.426Z" fill="#CB7226"/>
<path d="M207.376 110.812C208.696 108.241 203.61 97.2566 200.43 93.3752C180.138 68.6363 151.754 71.271 136.391 91.4529C141.084 93.4381 145.871 93.8572 150.24 92.6734C146.605 94.5171 146.201 99.4146 145.133 103.715C148.684 101.698 150.114 101.725 154.032 100.227C170.49 93.9462 189.965 97.8118 207.376 110.812Z" fill="#CB7226"/>
<path d="M331.121 17.1913C331.121 17.1913 308.388 49.1116 315.852 78.2243C323.316 107.342 341.078 118.976 340.696 170.638C340.314 222.3 333.284 273.161 371.066 251.345C408.842 229.523 485.762 131.243 468.215 80.5237C450.673 29.8096 395.307 45.445 376.775 28.8249C356.117 10.3034 335.71 9.82672 331.121 17.1913Z" fill="#DE873F"/>
<path d="M355.8 256.531C335.424 256.369 340.38 213.784 340.699 170.639C340.38 213.779 335.43 256.358 355.8 256.531Z" fill="#F3DCC0"/>
<path d="M340.072 153.316C340.066 153.296 340.066 153.28 340.066 153.265C340.066 153.285 340.066 153.296 340.072 153.316Z" fill="#D67837"/>
<path d="M340.065 153.266C339.536 147.085 338.698 141.595 337.64 136.625C338.698 141.595 339.536 147.09 340.065 153.266ZM337.64 136.619C337.619 136.52 337.598 136.426 337.577 136.331C337.598 136.426 337.619 136.525 337.64 136.619ZM337.509 136.001C337.499 135.965 337.494 135.928 337.483 135.891C337.494 135.928 337.499 135.97 337.509 136.001ZM337.342 135.258C337.336 135.226 337.326 135.189 337.321 135.153C337.326 135.189 337.336 135.221 337.342 135.258ZM337.2 134.624C337.195 134.608 337.19 134.592 337.185 134.571C337.19 134.587 337.195 134.608 337.2 134.624ZM337.169 134.498C337.164 134.482 337.164 134.467 337.158 134.451C337.164 134.472 337.164 134.482 337.169 134.498ZM337.101 134.194C337.096 134.189 337.096 134.184 337.096 134.184C337.096 134.189 337.096 134.189 337.101 134.194Z" fill="#CE672D"/>
<path d="M355.92 256.531C355.878 256.531 355.841 256.531 355.799 256.531C335.429 256.358 340.379 213.779 340.698 170.639C340.745 164.296 340.52 158.555 340.075 153.317C340.07 153.296 340.07 153.285 340.07 153.264C339.541 147.089 338.703 141.594 337.645 136.623V136.618C337.624 136.524 337.603 136.424 337.582 136.33C337.582 136.325 337.582 136.314 337.577 136.304C337.566 136.262 337.561 136.22 337.55 136.178C337.55 136.173 337.55 136.168 337.55 136.168C337.54 136.121 337.529 136.079 337.519 136.032C337.519 136.021 337.514 136.011 337.514 136C337.503 135.969 337.498 135.927 337.488 135.89C337.488 135.88 337.482 135.874 337.482 135.864C337.472 135.822 337.461 135.78 337.456 135.738C337.451 135.722 337.451 135.712 337.446 135.702C337.44 135.665 337.43 135.628 337.425 135.597C337.419 135.586 337.419 135.576 337.414 135.565C337.409 135.523 337.399 135.482 337.388 135.44C337.388 135.429 337.383 135.413 337.378 135.398C337.372 135.366 337.367 135.335 337.357 135.309C337.357 135.293 337.351 135.272 337.346 135.256C337.341 135.22 337.33 135.188 337.325 135.152C337.32 135.136 337.315 135.115 337.309 135.099C337.304 135.073 337.299 135.047 337.294 135.026C337.288 134.994 337.278 134.958 337.273 134.926C337.268 134.905 337.262 134.884 337.257 134.863C337.252 134.837 337.247 134.816 337.241 134.795C337.236 134.774 337.236 134.759 337.231 134.738C337.22 134.701 337.21 134.664 337.205 134.622C337.199 134.607 337.194 134.586 337.189 134.57C337.184 134.549 337.178 134.523 337.173 134.497C337.168 134.481 337.168 134.471 337.163 134.45C337.152 134.403 337.137 134.35 337.126 134.298C337.126 134.293 337.126 134.287 337.126 134.287C337.116 134.256 337.11 134.224 337.105 134.193C337.1 134.188 337.1 134.188 337.1 134.183C337.079 134.088 337.058 133.994 337.032 133.905C337.032 133.9 337.032 133.894 337.032 133.889C336.403 131.249 335.717 128.756 334.979 126.383C345.633 135.77 358.094 142.568 372.278 144.884C379.297 146.026 386.148 146.586 392.821 146.586C420.787 146.586 445.725 136.76 467.505 118.93C454.122 170.256 400.673 234.249 371.063 251.346C364.898 254.907 359.922 256.531 355.92 256.531Z" fill="#D67837"/>
</svg>
