<svg width="369" height="419" viewBox="0 0 369 419" fill="none" xmlns="http://www.w3.org/2000/svg">
<path d="M209.43 100.639C209.43 100.639 289.717 26.286 300.461 5.58553C313.639 -19.8082 342.6 47.5888 359.922 83.3171C377.249 119.045 369.125 159.645 336.105 190.502C303.085 221.359 233.252 104.971 209.43 100.639Z" fill="#2D2125"/>
<path d="M224.859 119.047C224.859 119.047 289.596 59.088 298.259 42.3945C308.887 21.9193 332.243 76.2633 346.213 105.077C360.177 133.886 353.63 166.624 327.005 191.509C300.375 216.39 244.067 122.536 224.859 119.047Z" fill="#F9DFC9"/>
<path d="M317.018 91.2942C315.562 85.9305 311.309 61.5372 303.515 75.664C298.303 85.1081 293.605 95.0551 286.538 103.315C275.062 116.74 262.161 128.217 248.568 139.023C264.989 156.863 285.402 181.518 302.928 191.371C315.803 159.126 326.305 125.566 317.018 91.2942Z" fill="#AF644E"/>
<path d="M159.362 100.639C159.362 100.639 79.0739 26.286 68.3308 5.58553C55.152 -19.8082 26.1913 47.5888 8.8693 83.3171C-8.45794 119.045 -0.333852 159.645 32.6864 190.502C65.7066 221.359 135.539 104.971 159.362 100.639Z" fill="#2D2125"/>
<path d="M143.929 119.047C143.929 119.047 79.193 59.088 70.5294 42.3945C59.9015 21.9193 36.5453 76.2633 22.5809 105.077C8.61119 133.886 15.1587 166.624 41.7833 191.509C68.4132 216.39 124.727 122.536 143.929 119.047Z" fill="#F9DFC9"/>
<path d="M51.7687 91.2942C53.2248 85.9305 57.4781 61.5372 65.2722 75.664C70.484 85.1081 75.1825 95.0551 82.2485 103.315C93.7249 116.74 106.626 128.217 120.219 139.023C103.798 156.863 83.3904 181.518 65.8588 191.371C52.9839 159.126 42.4817 125.566 51.7687 91.2942Z" fill="#AF644E"/>
<path d="M26.4782 314.932C81.236 293.027 122.27 270.121 186.074 282.08C233.2 290.911 286.712 309.621 329.422 336.34C348.137 313.057 362.112 290.219 361.547 274.846C359.918 231.103 287.351 71.1566 184.796 87.2372C184.796 87.2372 144.406 75.106 121.6 97.8493C98.7937 120.593 3.85005 217.935 15.4207 280.55C17.6888 292.797 21.523 304.2 26.4782 314.932Z" fill="#2D2125"/>
<path d="M344.12 316.701C338.877 308.965 333.261 301.008 330.69 290.38C324.194 263.588 323.383 228.672 310.696 221.36C298.015 214.053 248.673 150.631 243.802 148.279C238.931 145.933 226.747 140.972 217.004 151.527C207.592 161.725 197.519 166.738 188.007 164.926C178.495 163.113 178.029 164.522 159.355 148.279C140.682 132.036 89.5854 188.507 67.5963 211.454C51.3534 228.399 65.9725 256.03 41.6107 283.618C31.6166 294.932 27.1382 302.601 25.2734 312.244C45.2406 357.741 86.1021 366.069 120.217 395.831C161.786 432.104 208.88 416.794 236.495 401.174C267.352 383.732 317.291 371.988 344.12 316.701Z" fill="#FBEADB"/>
<path d="M178.082 208.127C179.166 193.896 175.573 170.204 177.464 158.021C174.153 151.939 171.43 154.328 164.473 148.278C163.525 147.456 162.441 146.943 161.336 146.476C165.071 160.305 170.66 168.633 170.66 184.546C170.66 239.98 175.274 236.276 177.191 233.987C180.785 229.682 177.663 213.591 178.082 208.127Z" fill="#2D2125"/>
<path d="M214.8 148.278C207.844 154.328 205.12 151.939 201.804 158.021C203.7 170.204 200.102 193.896 201.191 208.127C201.605 213.591 198.489 229.682 202.082 233.987C203.994 236.276 208.614 239.98 208.614 184.546C208.614 168.633 214.202 160.305 217.937 146.476C216.827 146.943 215.742 147.456 214.8 148.278Z" fill="#2D2125"/>
<path d="M303.751 313.082C269.594 321.641 256.059 328.644 241.607 360.611C235.667 373.743 226.433 388.551 210.719 391.997C180.91 398.539 143.102 392.023 130.237 359.815C116 324.181 114.759 309.641 76.3647 293.026C65.0873 288.144 55.4127 283.042 46.592 277.113C45.1254 279.276 43.5278 281.444 41.6107 283.618C31.6166 294.932 27.1382 302.601 25.2734 312.244C45.2406 357.741 86.1021 366.069 120.217 395.831C161.786 432.104 208.88 416.794 236.495 401.174C267.352 383.726 317.291 371.988 344.12 316.701C340.909 311.971 337.646 307.069 334.938 301.605C325.153 306.555 314.551 310.379 303.751 313.082Z" fill="#E7CBAC"/>
<path d="M217.631 239.375C217.631 239.375 219.653 202.002 239.19 201.133C258.728 200.258 268.01 212.714 278.721 210.247L276.804 213.4C275.029 216.025 272.981 218.471 270.723 220.697C263.804 227.522 254.716 234.687 245.12 232.865C224.896 229.025 221.748 240.543 217.631 239.375Z" fill="#101726"/>
<path d="M258.622 214.191C259.649 222.195 253.992 229.523 245.988 230.55C237.979 231.576 230.657 225.919 229.63 217.916C228.603 209.907 234.26 202.579 242.264 201.557C250.273 200.525 257.596 206.183 258.622 214.191Z" fill="#8B9DC4"/>
<path d="M251.155 215.15C251.652 219.031 248.913 222.583 245.032 223.08C241.15 223.578 237.599 220.833 237.101 216.952C236.604 213.071 239.343 209.519 243.224 209.022C247.106 208.524 250.657 211.269 251.155 215.15Z" fill="#101726"/>
<path d="M253.417 207.252C253.737 209.756 251.972 212.044 249.468 212.364C246.964 212.689 244.675 210.918 244.356 208.415C244.036 205.916 245.801 203.627 248.305 203.308C250.809 202.983 253.098 204.753 253.417 207.252Z" fill="#E9EAE9"/>
<path d="M160.187 239.903C160.187 239.903 158.836 202.498 139.319 201.278C119.802 200.052 110.295 212.34 99.6309 209.679L101.49 212.864C103.219 215.525 105.225 218.008 107.441 220.271C114.234 227.221 123.191 234.544 132.819 232.899C153.111 229.427 156.049 241.003 160.187 239.903Z" fill="#101726"/>
<path d="M150.879 218.57C149.706 226.553 142.283 232.079 134.295 230.905C126.308 229.737 120.787 222.31 121.955 214.322C123.128 206.334 130.55 200.813 138.538 201.987C146.526 203.155 152.052 210.582 150.879 218.57Z" fill="#8B9DC4"/>
<path d="M143.431 217.478C142.86 221.349 139.261 224.025 135.39 223.46C131.52 222.889 128.838 219.295 129.409 215.419C129.974 211.548 133.573 208.872 137.449 209.438C141.32 210.003 143.996 213.607 143.431 217.478Z" fill="#101726"/>
<path d="M147.733 210.485C147.366 212.978 145.046 214.706 142.553 214.34C140.059 213.973 138.331 211.653 138.697 209.154C139.064 206.661 141.385 204.932 143.878 205.299C146.376 205.666 148.1 207.986 147.733 210.485Z" fill="#E9EAE9"/>
<path d="M205.675 241.55C197.116 234.657 184.922 234.94 176.526 242.037C157.449 258.149 126.016 287.22 123.334 305.81C119.463 332.649 133.019 365.088 188.007 344.786C188.007 344.786 240.235 367.524 254.2 328.548C265.797 296.177 231.912 262.67 205.675 241.55Z" fill="#FEF9F4"/>
<path d="M186.963 341.049V340.645L186.549 340.855L186.13 340.645V341.049C180.52 343.72 144.965 363.373 129.916 328.085C129.916 328.085 130 355.584 160.27 356.941C179.923 357.821 185.192 354.269 186.549 350.55C187.9 354.269 193.17 357.821 212.823 356.941C243.093 355.584 243.182 328.085 243.182 328.085C228.133 363.373 192.573 343.72 186.963 341.049Z" fill="#101726"/>
<path d="M184.673 344.623C184.673 344.623 149.007 329.433 152.323 307.413C155.644 285.392 182.384 288.042 188.072 288.409C193.756 288.781 224.832 293.296 220.59 312.21C216.342 331.125 197.05 341.459 184.673 344.623Z" fill="#101726"/>
</svg>
