<svg width="417" height="281" viewBox="0 0 417 281" fill="none" xmlns="http://www.w3.org/2000/svg">
<path d="M215.443 0.435074C215.443 0.435074 143.834 -3.76086 114.271 26.086C84.708 55.9277 43.3384 103.762 64.6832 169.282C86.0332 234.803 160.832 276.557 200.415 280.146C264.397 285.947 323.78 223.883 338.54 207.627C353.301 191.371 404.089 112.576 329.484 44.0047C257.787 -21.9013 253.643 14.0628 215.443 0.435074Z" fill="#DDD2C1"/>
<path d="M158.877 4.95489C158.877 4.95489 137.946 -3.53216 112.118 1.70886C86.2947 6.94988 47.9894 5.19769 37.372 4.17904C26.7599 3.15511 5.237 20.1132 0.491388 55.1958C-4.25946 90.2837 26.3461 128.433 53.1017 142.842C79.8573 157.251 62.9124 92.7696 91.3023 63.2394C119.692 33.7145 165.671 12.9035 158.877 4.95489Z" fill="#302C2A"/>
<path d="M284.834 12.6789C284.834 12.6789 317.818 13.3387 341.383 14.1515C364.954 14.959 375.435 7.67009 384.953 13.4547C394.465 19.2341 434.352 43.2226 407.581 104.468C378.594 170.796 381.606 137.519 364.912 124.73C348.224 111.947 314.56 86.9663 302.984 62.2338C291.408 37.496 275.919 7.48538 284.834 12.6789Z" fill="#302C2A"/>
<path d="M268.447 131.611C268.447 131.611 228.649 92.7596 255.802 63.8839C259.448 60.0046 265.639 59.9465 269.515 63.5988C280.421 73.8856 303.096 94.6491 319.261 105.284C341.281 119.767 315.306 171.802 297.853 157.251C280.4 142.694 268.447 131.611 268.447 131.611Z" fill="#302C2A"/>
<path d="M305.013 107.148C305.202 119.028 295.789 128.819 283.993 129.009C272.203 129.194 262.486 119.715 262.298 107.829C262.114 95.9425 271.522 86.1572 283.318 85.9672C295.114 85.7772 304.825 95.2617 305.013 107.148Z" fill="#45413B"/>
<path d="M294.859 107.307C294.959 113.54 290.025 118.676 283.839 118.776C277.647 118.871 272.556 113.899 272.457 107.666C272.357 101.433 277.296 96.2971 283.483 96.2021C289.669 96.1019 294.76 101.074 294.859 107.307Z" fill="#090A0A"/>
<path d="M298.525 95.9567C298.588 100.037 295.356 103.393 291.307 103.462C287.264 103.525 283.927 100.269 283.864 96.1942C283.801 92.1143 287.028 88.7523 291.077 88.689C295.126 88.6256 298.462 91.8769 298.525 95.9567Z" fill="#E3E3E1"/>
<path d="M156.043 133.411C156.043 133.411 194.6 93.3037 166.55 65.3146C162.779 61.5514 156.593 61.6887 152.832 65.4677C142.251 76.0922 120.241 97.5735 104.423 108.721C82.8736 123.9 110.473 175.081 127.459 159.975C144.446 144.869 156.043 133.411 156.043 133.411Z" fill="#302C2A"/>
<path d="M161.711 109.438C161.9 121.319 152.493 131.109 140.697 131.294C128.901 131.484 119.184 122.005 119.001 110.119C118.812 98.233 128.22 88.4475 140.016 88.2575C151.812 88.0675 161.528 97.5521 161.711 109.438Z" fill="#45413B"/>
<path d="M151.555 109.596C151.655 115.829 146.721 120.965 140.535 121.065C134.349 121.16 129.252 116.188 129.158 109.955C129.058 103.722 133.992 98.5862 140.178 98.4912C146.365 98.3909 151.461 103.363 151.555 109.596Z" fill="#090A0A"/>
<path d="M155.228 98.2477C155.291 102.328 152.065 105.684 148.016 105.753C143.967 105.816 140.635 102.56 140.567 98.4852C140.504 94.4054 143.736 91.0433 147.785 90.98C151.829 90.9166 155.166 94.1679 155.228 98.2477Z" fill="#E3E3E1"/>
<path d="M265.003 118.461C247.571 109.108 217.751 96.9056 197.323 101.935C165.743 109.715 126.139 143.853 111.132 163.197C98.3356 179.701 98.1837 211.364 119.267 242.963C147.269 264.993 178.99 278.204 200.419 280.146C239.709 283.709 277.26 261.684 303.811 240.387C321.458 226.231 329.446 202.465 322.144 180.957C315.324 160.874 299.6 137.018 265.003 118.461Z" fill="#302C2A"/>
<path d="M201.463 140.989C201.583 148.526 197.592 154.696 192.553 154.78C187.514 154.86 183.334 148.816 183.213 141.28C183.098 133.748 187.084 127.573 192.123 127.493C197.162 127.409 201.347 133.452 201.463 140.989Z" fill="#0B0C0B"/>
<path d="M237.226 140.418C237.347 147.95 233.356 154.125 228.317 154.204C223.278 154.289 219.098 148.245 218.977 140.708C218.857 133.171 222.848 126.996 227.887 126.917C232.926 126.838 237.106 132.881 237.226 140.418Z" fill="#0B0C0B"/>
<path d="M120.295 221.794C120.295 221.794 149.759 223.103 173.67 208.483C197.587 193.858 211.918 169.152 208.953 121.138C208.953 121.138 210.006 114.894 213.835 121.059C213.835 121.059 208.707 189.678 240.784 207.407C272.862 225.141 298.858 221.166 298.858 221.166C298.858 221.166 281.185 235.628 233.325 220.311C218.79 215.656 203.223 215.408 188.452 219.229C171.145 223.71 145.888 227.521 120.295 221.794Z" fill="#0B0C0B"/>
</svg>
